solid OpenSCAD_Model
  facet normal 0 0 1
    outer loop
      vertex 75.25 12.8 3
      vertex 69.5 -10.2 3
      vertex 75.25 -10.2 3
    endloop
  endfacet
  facet normal 0 0 1
    outer loop
      vertex 69.5 -10.2 3
      vertex 43.5 -10.2 3
      vertex 69.5 -12.95 3
    endloop
  endfacet
  facet normal 0 0 1
    outer loop
      vertex 75.25 12.8 3
      vertex 43.5 -10.2 3
      vertex 69.5 -10.2 3
    endloop
  endfacet
  facet normal 0 0 1
    outer loop
      vertex 75.25 12.8 3
      vertex -43.5 -10.2 3
      vertex 43.5 -10.2 3
    endloop
  endfacet
  facet normal 0 0 1
    outer loop
      vertex -43.5 -10.2 3
      vertex -69.5 -10.2 3
      vertex -43.5 -12.95 3
    endloop
  endfacet
  facet normal -0 0 1
    outer loop
      vertex -75.25 12.8 3
      vertex -43.5 -10.2 3
      vertex 75.25 12.8 3
    endloop
  endfacet
  facet normal 0 0 1
    outer loop
      vertex -43.5 -10.2 3
      vertex -75.25 12.8 3
      vertex -69.5 -10.2 3
    endloop
  endfacet
  facet normal 0 0 1
    outer loop
      vertex -69.5 -10.2 3
      vertex -75.25 12.8 3
      vertex -75.25 -10.2 3
    endloop
  endfacet
  facet normal 0 0 1
    outer loop
      vertex 69.5 -12.95 3
      vertex 43.5 -10.2 3
      vertex 43.5 -12.95 3
    endloop
  endfacet
  facet normal 0 0 1
    outer loop
      vertex -43.5 -12.95 3
      vertex -69.5 -10.2 3
      vertex -69.5 -12.95 3
    endloop
  endfacet
  facet normal 0 -1 0
    outer loop
      vertex -75.25 12.8 3
      vertex 75.25 12.8 80.2194
      vertex -75.25 12.8 80.2194
    endloop
  endfacet
  facet normal 0 -1 -0
    outer loop
      vertex 75.25 12.8 80.2194
      vertex -75.25 12.8 3
      vertex 75.25 12.8 3
    endloop
  endfacet
  facet normal 0 1 -0
    outer loop
      vertex 75.25 -10.2 3
      vertex 69.5 -10.2 80.2194
      vertex 75.25 -10.2 80.2194
    endloop
  endfacet
  facet normal 0 1 0
    outer loop
      vertex 69.5 -10.2 80.2194
      vertex 75.25 -10.2 3
      vertex 69.5 -10.2 3
    endloop
  endfacet
  facet normal 0 1 -0
    outer loop
      vertex -69.5 -10.2 3
      vertex -75.25 -10.2 80.2194
      vertex -69.5 -10.2 80.2194
    endloop
  endfacet
  facet normal 0 1 0
    outer loop
      vertex -75.25 -10.2 80.2194
      vertex -69.5 -10.2 3
      vertex -75.25 -10.2 3
    endloop
  endfacet
  facet normal 0 1 -0
    outer loop
      vertex 43.5 -10.2 3
      vertex -43.5 -10.2 80.2194
      vertex 43.5 -10.2 80.2194
    endloop
  endfacet
  facet normal 0 1 0
    outer loop
      vertex -43.5 -10.2 80.2194
      vertex 43.5 -10.2 3
      vertex -43.5 -10.2 3
    endloop
  endfacet
  facet normal -1 0 0
    outer loop
      vertex 75.25 -10.2 3
      vertex 75.25 12.8 80.2194
      vertex 75.25 12.8 3
    endloop
  endfacet
  facet normal -1 -0 0
    outer loop
      vertex 75.25 12.8 80.2194
      vertex 75.25 -10.2 3
      vertex 75.25 -10.2 80.2194
    endloop
  endfacet
  facet normal 1 -0 0
    outer loop
      vertex -75.25 -10.2 80.2194
      vertex -75.25 12.8 3
      vertex -75.25 12.8 80.2194
    endloop
  endfacet
  facet normal 1 0 0
    outer loop
      vertex -75.25 12.8 3
      vertex -75.25 -10.2 80.2194
      vertex -75.25 -10.2 3
    endloop
  endfacet
  facet normal -0.707104 0 -0.70711
    outer loop
      vertex -79.6194 -11.25 3.08658
      vertex -76.9134 11.25 0.380603
      vertex -76.9134 -11.25 0.380603
    endloop
  endfacet
  facet normal -0.707104 0 -0.70711
    outer loop
      vertex -76.9134 11.25 0.380603
      vertex -79.6194 -11.25 3.08658
      vertex -79.6194 11.25 3.08658
    endloop
  endfacet
  facet normal 0.678602 -0.281089 0.678593
    outer loop
      vertex 79.6194 -11.25 77.5134
      vertex 76.353 -12.603 80.2194
      vertex 78.2664 -14.5164 77.5134
    endloop
  endfacet
  facet normal -0.678599 0.281069 -0.678604
    outer loop
      vertex -76.9134 11.25 0.380603
      vertex -79.6194 11.25 3.08658
      vertex -76.353 12.603 0.380603
    endloop
  endfacet
  facet normal 0.281069 0.678599 -0.678604
    outer loop
      vertex 76.353 12.603 0.380603
      vertex 75 13.1634 0.380603
      vertex 75 15.8694 3.08658
    endloop
  endfacet
  facet normal 0 1 -0
    outer loop
      vertex 75 15.8694 3.08658
      vertex -75 15.8694 77.5134
      vertex 75 15.8694 77.5134
    endloop
  endfacet
  facet normal 0 1 0
    outer loop
      vertex -75 15.8694 77.5134
      vertex 75 15.8694 3.08658
      vertex -75 15.8694 3.08658
    endloop
  endfacet
  facet normal -0.382687 -0.923878 0
    outer loop
      vertex -78.2664 -14.5164 3.08658
      vertex -75 -15.8694 77.5134
      vertex -78.2664 -14.5164 77.5134
    endloop
  endfacet
  facet normal -0.382687 -0.923878 -0
    outer loop
      vertex -75 -15.8694 77.5134
      vertex -78.2664 -14.5164 3.08658
      vertex -75 -15.8694 3.08658
    endloop
  endfacet
  facet normal 0.281089 -0.678602 0.678593
    outer loop
      vertex 76.353 -12.603 80.2194
      vertex 75 -15.8694 77.5134
      vertex 78.2664 -14.5164 77.5134
    endloop
  endfacet
  facet normal 0 -1 0
    outer loop
      vertex -75 -15.8694 3.08658
      vertex 75 -15.8694 77.5134
      vertex -75 -15.8694 77.5134
    endloop
  endfacet
  facet normal 0 -1 -0
    outer loop
      vertex 75 -15.8694 77.5134
      vertex -75 -15.8694 3.08658
      vertex 75 -15.8694 3.08658
    endloop
  endfacet
  facet normal 0.678602 0.281089 0.678593
    outer loop
      vertex 78.2664 14.5164 77.5134
      vertex 76.353 12.603 80.2194
      vertex 79.6194 11.25 77.5134
    endloop
  endfacet
  facet normal -0.281088 -0.678599 -0.678596
    outer loop
      vertex -75 -15.8694 3.08658
      vertex -78.2664 -14.5164 3.08658
      vertex -76.353 -12.603 0.380603
    endloop
  endfacet
  facet normal 0.707104 0 -0.70711
    outer loop
      vertex 76.9134 -11.25 0.380603
      vertex 79.6194 11.25 3.08658
      vertex 79.6194 -11.25 3.08658
    endloop
  endfacet
  facet normal 0.707104 0 -0.70711
    outer loop
      vertex 79.6194 11.25 3.08658
      vertex 76.9134 -11.25 0.380603
      vertex 76.9134 11.25 0.380603
    endloop
  endfacet
  facet normal -0.281088 0.678599 -0.678596
    outer loop
      vertex -76.353 12.603 0.380603
      vertex -78.2664 14.5164 3.08658
      vertex -75 15.8694 3.08658
    endloop
  endfacet
  facet normal 0.678601 -0.28107 0.678601
    outer loop
      vertex 76.9134 -11.25 80.2194
      vertex 76.353 -12.603 80.2194
      vertex 79.6194 -11.25 77.5134
    endloop
  endfacet
  facet normal 0.281069 -0.678599 -0.678604
    outer loop
      vertex 76.353 -12.603 0.380603
      vertex 75 -15.8694 3.08658
      vertex 75 -13.1634 0.380603
    endloop
  endfacet
  facet normal 0.382687 -0.923878 0
    outer loop
      vertex 75 -15.8694 3.08658
      vertex 78.2664 -14.5164 77.5134
      vertex 75 -15.8694 77.5134
    endloop
  endfacet
  facet normal 0.382687 -0.923878 0
    outer loop
      vertex 78.2664 -14.5164 77.5134
      vertex 75 -15.8694 3.08658
      vertex 78.2664 -14.5164 3.08658
    endloop
  endfacet
  facet normal -0.923878 0.382687 0
    outer loop
      vertex -79.6194 11.25 3.08658
      vertex -78.2664 14.5164 77.5134
      vertex -78.2664 14.5164 3.08658
    endloop
  endfacet
  facet normal -0.923878 0.382687 0
    outer loop
      vertex -78.2664 14.5164 77.5134
      vertex -79.6194 11.25 3.08658
      vertex -79.6194 11.25 77.5134
    endloop
  endfacet
  facet normal 1 -0 0
    outer loop
      vertex 79.6194 -11.25 77.5134
      vertex 79.6194 11.25 3.08658
      vertex 79.6194 11.25 77.5134
    endloop
  endfacet
  facet normal 1 0 0
    outer loop
      vertex 79.6194 11.25 3.08658
      vertex 79.6194 -11.25 77.5134
      vertex 79.6194 -11.25 3.08658
    endloop
  endfacet
  facet normal 0.678599 -0.281069 -0.678604
    outer loop
      vertex 79.6194 -11.25 3.08658
      vertex 76.353 -12.603 0.380603
      vertex 76.9134 -11.25 0.380603
    endloop
  endfacet
  facet normal 0 0.707104 -0.70711
    outer loop
      vertex 75 13.1634 0.380603
      vertex -75 15.8694 3.08658
      vertex 75 15.8694 3.08658
    endloop
  endfacet
  facet normal 0 0.707104 -0.70711
    outer loop
      vertex -75 15.8694 3.08658
      vertex 75 13.1634 0.380603
      vertex -75 13.1634 0.380603
    endloop
  endfacet
  facet normal 0 -0.707104 -0.70711
    outer loop
      vertex -75 -13.1634 0.380603
      vertex 75 -15.8694 3.08658
      vertex -75 -15.8694 3.08658
    endloop
  endfacet
  facet normal 0 -0.707104 -0.70711
    outer loop
      vertex 75 -15.8694 3.08658
      vertex -75 -13.1634 0.380603
      vertex 75 -13.1634 0.380603
    endloop
  endfacet
  facet normal 0.707107 -0 0.707107
    outer loop
      vertex 76.9134 -11.25 80.2194
      vertex 79.6194 11.25 77.5134
      vertex 76.9134 11.25 80.2194
    endloop
  endfacet
  facet normal 0.707107 0 0.707107
    outer loop
      vertex 79.6194 11.25 77.5134
      vertex 76.9134 -11.25 80.2194
      vertex 79.6194 -11.25 77.5134
    endloop
  endfacet
  facet normal -0.28107 0.678601 0.678601
    outer loop
      vertex -75 15.8694 77.5134
      vertex -76.353 12.603 80.2194
      vertex -75 13.1634 80.2194
    endloop
  endfacet
  facet normal 0 0 1
    outer loop
      vertex 43.5 -10.2 80.2194
      vertex -43.5 -10.2 80.2194
      vertex 43.5 -12.95 80.2194
    endloop
  endfacet
  facet normal 0 0 1
    outer loop
      vertex 75.25 12.8 80.2194
      vertex 76.9134 11.25 80.2194
      vertex 76.353 12.603 80.2194
    endloop
  endfacet
  facet normal 0 0 1
    outer loop
      vertex 76.9134 11.25 80.2194
      vertex 75.25 -10.2 80.2194
      vertex 76.9134 -11.25 80.2194
    endloop
  endfacet
  facet normal 0 0 1
    outer loop
      vertex 76.9134 11.25 80.2194
      vertex 75.25 12.8 80.2194
      vertex 75.25 -10.2 80.2194
    endloop
  endfacet
  facet normal 0 0 1
    outer loop
      vertex 75 13.1634 80.2194
      vertex 75.25 12.8 80.2194
      vertex 76.353 12.603 80.2194
    endloop
  endfacet
  facet normal -0 0 1
    outer loop
      vertex -75 13.1634 80.2194
      vertex 75.25 12.8 80.2194
      vertex 75 13.1634 80.2194
    endloop
  endfacet
  facet normal 0 0 1
    outer loop
      vertex -75 13.1634 80.2194
      vertex -75.25 12.8 80.2194
      vertex 75.25 12.8 80.2194
    endloop
  endfacet
  facet normal 0 0 1
    outer loop
      vertex -76.9134 11.25 80.2194
      vertex -75.25 12.8 80.2194
      vertex -76.353 12.603 80.2194
    endloop
  endfacet
  facet normal 0 0 1
    outer loop
      vertex -76.353 12.603 80.2194
      vertex -75.25 12.8 80.2194
      vertex -75 13.1634 80.2194
    endloop
  endfacet
  facet normal 0 0 1
    outer loop
      vertex 76.9134 -11.25 80.2194
      vertex 75.25 -10.2 80.2194
      vertex 76.353 -12.603 80.2194
    endloop
  endfacet
  facet normal 0 0 1
    outer loop
      vertex 75.25 -10.2 80.2194
      vertex 75 -13.1634 80.2194
      vertex 76.353 -12.603 80.2194
    endloop
  endfacet
  facet normal -0 0 1
    outer loop
      vertex 69.5 -10.2 80.2194
      vertex 75 -13.1634 80.2194
      vertex 75.25 -10.2 80.2194
    endloop
  endfacet
  facet normal -0 0 1
    outer loop
      vertex 69.5 -12.95 80.2194
      vertex 75 -13.1634 80.2194
      vertex 69.5 -10.2 80.2194
    endloop
  endfacet
  facet normal -0 0 1
    outer loop
      vertex 43.5 -12.95 80.2194
      vertex 75 -13.1634 80.2194
      vertex 69.5 -12.95 80.2194
    endloop
  endfacet
  facet normal 0 0 1
    outer loop
      vertex -43.5 -12.95 80.2194
      vertex 43.5 -12.95 80.2194
      vertex -43.5 -10.2 80.2194
    endloop
  endfacet
  facet normal -0 0 1
    outer loop
      vertex -43.5 -12.95 80.2194
      vertex 75 -13.1634 80.2194
      vertex 43.5 -12.95 80.2194
    endloop
  endfacet
  facet normal 0 0 1
    outer loop
      vertex -75 -13.1634 80.2194
      vertex -43.5 -12.95 80.2194
      vertex -69.5 -12.95 80.2194
    endloop
  endfacet
  facet normal 0 0 1
    outer loop
      vertex -43.5 -12.95 80.2194
      vertex -75 -13.1634 80.2194
      vertex 75 -13.1634 80.2194
    endloop
  endfacet
  facet normal 0 0 1
    outer loop
      vertex -69.5 -10.2 80.2194
      vertex -75 -13.1634 80.2194
      vertex -69.5 -12.95 80.2194
    endloop
  endfacet
  facet normal -0 0 1
    outer loop
      vertex -75.25 -10.2 80.2194
      vertex -75 -13.1634 80.2194
      vertex -69.5 -10.2 80.2194
    endloop
  endfacet
  facet normal 0 0 1
    outer loop
      vertex -75.25 -10.2 80.2194
      vertex -76.353 -12.603 80.2194
      vertex -75 -13.1634 80.2194
    endloop
  endfacet
  facet normal 0 0 1
    outer loop
      vertex -75.25 12.8 80.2194
      vertex -76.9134 11.25 80.2194
      vertex -75.25 -10.2 80.2194
    endloop
  endfacet
  facet normal 0 0 1
    outer loop
      vertex -76.9134 -11.25 80.2194
      vertex -75.25 -10.2 80.2194
      vertex -76.9134 11.25 80.2194
    endloop
  endfacet
  facet normal 0 0 1
    outer loop
      vertex -75.25 -10.2 80.2194
      vertex -76.9134 -11.25 80.2194
      vertex -76.353 -12.603 80.2194
    endloop
  endfacet
  facet normal 0.678599 0.281069 -0.678604
    outer loop
      vertex 76.9134 11.25 0.380603
      vertex 76.353 12.603 0.380603
      vertex 79.6194 11.25 3.08658
    endloop
  endfacet
  facet normal 0.281089 0.678602 0.678593
    outer loop
      vertex 78.2664 14.5164 77.5134
      vertex 75 15.8694 77.5134
      vertex 76.353 12.603 80.2194
    endloop
  endfacet
  facet normal 0.678599 -0.281088 -0.678596
    outer loop
      vertex 78.2664 -14.5164 3.08658
      vertex 76.353 -12.603 0.380603
      vertex 79.6194 -11.25 3.08658
    endloop
  endfacet
  facet normal 0.281088 -0.678599 -0.678596
    outer loop
      vertex 78.2664 -14.5164 3.08658
      vertex 75 -15.8694 3.08658
      vertex 76.353 -12.603 0.380603
    endloop
  endfacet
  facet normal -0.281089 -0.678602 0.678593
    outer loop
      vertex -76.353 -12.603 80.2194
      vertex -78.2664 -14.5164 77.5134
      vertex -75 -15.8694 77.5134
    endloop
  endfacet
  facet normal 0.678601 0.28107 0.678601
    outer loop
      vertex 79.6194 11.25 77.5134
      vertex 76.353 12.603 80.2194
      vertex 76.9134 11.25 80.2194
    endloop
  endfacet
  facet normal 0.923878 -0.382687 0
    outer loop
      vertex 78.2664 -14.5164 77.5134
      vertex 79.6194 -11.25 3.08658
      vertex 79.6194 -11.25 77.5134
    endloop
  endfacet
  facet normal 0.923878 -0.382687 0
    outer loop
      vertex 79.6194 -11.25 3.08658
      vertex 78.2664 -14.5164 77.5134
      vertex 78.2664 -14.5164 3.08658
    endloop
  endfacet
  facet normal 0.678599 0.281088 -0.678596
    outer loop
      vertex 79.6194 11.25 3.08658
      vertex 76.353 12.603 0.380603
      vertex 78.2664 14.5164 3.08658
    endloop
  endfacet
  facet normal 0.281088 0.678599 -0.678596
    outer loop
      vertex 76.353 12.603 0.380603
      vertex 75 15.8694 3.08658
      vertex 78.2664 14.5164 3.08658
    endloop
  endfacet
  facet normal -0.281069 0.678599 -0.678604
    outer loop
      vertex -75 13.1634 0.380603
      vertex -76.353 12.603 0.380603
      vertex -75 15.8694 3.08658
    endloop
  endfacet
  facet normal -1 0 0
    outer loop
      vertex -79.6194 -11.25 3.08658
      vertex -79.6194 11.25 77.5134
      vertex -79.6194 11.25 3.08658
    endloop
  endfacet
  facet normal -1 -0 0
    outer loop
      vertex -79.6194 11.25 77.5134
      vertex -79.6194 -11.25 3.08658
      vertex -79.6194 -11.25 77.5134
    endloop
  endfacet
  facet normal -0.923878 -0.382687 0
    outer loop
      vertex -78.2664 -14.5164 3.08658
      vertex -79.6194 -11.25 77.5134
      vertex -79.6194 -11.25 3.08658
    endloop
  endfacet
  facet normal -0.923878 -0.382687 0
    outer loop
      vertex -79.6194 -11.25 77.5134
      vertex -78.2664 -14.5164 3.08658
      vertex -78.2664 -14.5164 77.5134
    endloop
  endfacet
  facet normal -0.678601 0.28107 0.678601
    outer loop
      vertex -76.353 12.603 80.2194
      vertex -79.6194 11.25 77.5134
      vertex -76.9134 11.25 80.2194
    endloop
  endfacet
  facet normal -0.678602 0.281089 0.678593
    outer loop
      vertex -78.2664 14.5164 77.5134
      vertex -79.6194 11.25 77.5134
      vertex -76.353 12.603 80.2194
    endloop
  endfacet
  facet normal -0.281089 0.678602 0.678593
    outer loop
      vertex -75 15.8694 77.5134
      vertex -78.2664 14.5164 77.5134
      vertex -76.353 12.603 80.2194
    endloop
  endfacet
  facet normal 0.28107 -0.678601 0.678601
    outer loop
      vertex 75 -13.1634 80.2194
      vertex 75 -15.8694 77.5134
      vertex 76.353 -12.603 80.2194
    endloop
  endfacet
  facet normal 0.923878 0.382687 0
    outer loop
      vertex 79.6194 11.25 77.5134
      vertex 78.2664 14.5164 3.08658
      vertex 78.2664 14.5164 77.5134
    endloop
  endfacet
  facet normal 0.923878 0.382687 0
    outer loop
      vertex 78.2664 14.5164 3.08658
      vertex 79.6194 11.25 77.5134
      vertex 79.6194 11.25 3.08658
    endloop
  endfacet
  facet normal 0.382687 0.923878 -0
    outer loop
      vertex 78.2664 14.5164 3.08658
      vertex 75 15.8694 77.5134
      vertex 78.2664 14.5164 77.5134
    endloop
  endfacet
  facet normal 0.382687 0.923878 0
    outer loop
      vertex 75 15.8694 77.5134
      vertex 78.2664 14.5164 3.08658
      vertex 75 15.8694 3.08658
    endloop
  endfacet
  facet normal -0.678599 0.281088 -0.678596
    outer loop
      vertex -76.353 12.603 0.380603
      vertex -79.6194 11.25 3.08658
      vertex -78.2664 14.5164 3.08658
    endloop
  endfacet
  facet normal 0.28107 0.678601 0.678601
    outer loop
      vertex 75 15.8694 77.5134
      vertex 75 13.1634 80.2194
      vertex 76.353 12.603 80.2194
    endloop
  endfacet
  facet normal -0.678602 -0.281089 0.678593
    outer loop
      vertex -76.353 -12.603 80.2194
      vertex -79.6194 -11.25 77.5134
      vertex -78.2664 -14.5164 77.5134
    endloop
  endfacet
  facet normal 0 0 -1
    outer loop
      vertex 75 -13.1634 0.380603
      vertex 76.9134 -11.25 0.380603
      vertex 76.353 -12.603 0.380603
    endloop
  endfacet
  facet normal -0 0 -1
    outer loop
      vertex 76.9134 -11.25 0.380603
      vertex 75 -13.1634 0.380603
      vertex 76.9134 11.25 0.380603
    endloop
  endfacet
  facet normal 0 0 -1
    outer loop
      vertex 75 13.1634 0.380603
      vertex 76.9134 11.25 0.380603
      vertex 75 -13.1634 0.380603
    endloop
  endfacet
  facet normal 0 0 -1
    outer loop
      vertex 76.9134 11.25 0.380603
      vertex 75 13.1634 0.380603
      vertex 76.353 12.603 0.380603
    endloop
  endfacet
  facet normal 0 0 -1
    outer loop
      vertex -75 -13.1634 0.380603
      vertex 75 13.1634 0.380603
      vertex 75 -13.1634 0.380603
    endloop
  endfacet
  facet normal 0 0 -1
    outer loop
      vertex -75 -13.1634 0.380603
      vertex -75 13.1634 0.380603
      vertex 75 13.1634 0.380603
    endloop
  endfacet
  facet normal 0 0 -1
    outer loop
      vertex -76.9134 -11.25 0.380603
      vertex -75 -13.1634 0.380603
      vertex -76.353 -12.603 0.380603
    endloop
  endfacet
  facet normal 0 0 -1
    outer loop
      vertex -75 -13.1634 0.380603
      vertex -76.9134 -11.25 0.380603
      vertex -75 13.1634 0.380603
    endloop
  endfacet
  facet normal 0 0 -1
    outer loop
      vertex -76.9134 11.25 0.380603
      vertex -75 13.1634 0.380603
      vertex -76.9134 -11.25 0.380603
    endloop
  endfacet
  facet normal 0 0 -1
    outer loop
      vertex -75 13.1634 0.380603
      vertex -76.9134 11.25 0.380603
      vertex -76.353 12.603 0.380603
    endloop
  endfacet
  facet normal -0.382687 0.923878 0
    outer loop
      vertex -75 15.8694 3.08658
      vertex -78.2664 14.5164 77.5134
      vertex -75 15.8694 77.5134
    endloop
  endfacet
  facet normal -0.382687 0.923878 0
    outer loop
      vertex -78.2664 14.5164 77.5134
      vertex -75 15.8694 3.08658
      vertex -78.2664 14.5164 3.08658
    endloop
  endfacet
  facet normal -0.678599 -0.281088 -0.678596
    outer loop
      vertex -78.2664 -14.5164 3.08658
      vertex -79.6194 -11.25 3.08658
      vertex -76.353 -12.603 0.380603
    endloop
  endfacet
  facet normal -0.678599 -0.281069 -0.678604
    outer loop
      vertex -76.353 -12.603 0.380603
      vertex -79.6194 -11.25 3.08658
      vertex -76.9134 -11.25 0.380603
    endloop
  endfacet
  facet normal -0.28107 -0.678601 0.678601
    outer loop
      vertex -75 -13.1634 80.2194
      vertex -76.353 -12.603 80.2194
      vertex -75 -15.8694 77.5134
    endloop
  endfacet
  facet normal 0 -0.707107 0.707107
    outer loop
      vertex -75 -15.8694 77.5134
      vertex 75 -13.1634 80.2194
      vertex -75 -13.1634 80.2194
    endloop
  endfacet
  facet normal 0 -0.707107 0.707107
    outer loop
      vertex 75 -13.1634 80.2194
      vertex -75 -15.8694 77.5134
      vertex 75 -15.8694 77.5134
    endloop
  endfacet
  facet normal 0 0.707107 0.707107
    outer loop
      vertex 75 15.8694 77.5134
      vertex -75 13.1634 80.2194
      vertex 75 13.1634 80.2194
    endloop
  endfacet
  facet normal 0 0.707107 0.707107
    outer loop
      vertex -75 13.1634 80.2194
      vertex 75 15.8694 77.5134
      vertex -75 15.8694 77.5134
    endloop
  endfacet
  facet normal -0.707107 0 0.707107
    outer loop
      vertex -79.6194 -11.25 77.5134
      vertex -76.9134 11.25 80.2194
      vertex -79.6194 11.25 77.5134
    endloop
  endfacet
  facet normal -0.707107 0 0.707107
    outer loop
      vertex -76.9134 11.25 80.2194
      vertex -79.6194 -11.25 77.5134
      vertex -76.9134 -11.25 80.2194
    endloop
  endfacet
  facet normal -0.678601 -0.28107 0.678601
    outer loop
      vertex -76.9134 -11.25 80.2194
      vertex -79.6194 -11.25 77.5134
      vertex -76.353 -12.603 80.2194
    endloop
  endfacet
  facet normal -0.281069 -0.678599 -0.678604
    outer loop
      vertex -75 -15.8694 3.08658
      vertex -76.353 -12.603 0.380603
      vertex -75 -13.1634 0.380603
    endloop
  endfacet
  facet normal -1 0 0
    outer loop
      vertex -43.5 -12.95 3
      vertex -43.5 -10.2 80.2194
      vertex -43.5 -10.2 3
    endloop
  endfacet
  facet normal -1 -0 0
    outer loop
      vertex -43.5 -10.2 80.2194
      vertex -43.5 -12.95 3
      vertex -43.5 -12.95 80.2194
    endloop
  endfacet
  facet normal 1 -0 0
    outer loop
      vertex -69.5 -12.95 80.2194
      vertex -69.5 -10.2 3
      vertex -69.5 -10.2 80.2194
    endloop
  endfacet
  facet normal 1 0 0
    outer loop
      vertex -69.5 -10.2 3
      vertex -69.5 -12.95 80.2194
      vertex -69.5 -12.95 3
    endloop
  endfacet
  facet normal 0 1 -0
    outer loop
      vertex -43.5 -12.95 3
      vertex -69.5 -12.95 80.2194
      vertex -43.5 -12.95 80.2194
    endloop
  endfacet
  facet normal 0 1 0
    outer loop
      vertex -69.5 -12.95 80.2194
      vertex -43.5 -12.95 3
      vertex -69.5 -12.95 3
    endloop
  endfacet
  facet normal -1 0 0
    outer loop
      vertex 69.5 -12.95 3
      vertex 69.5 -10.2 80.2194
      vertex 69.5 -10.2 3
    endloop
  endfacet
  facet normal -1 -0 0
    outer loop
      vertex 69.5 -10.2 80.2194
      vertex 69.5 -12.95 3
      vertex 69.5 -12.95 80.2194
    endloop
  endfacet
  facet normal 1 -0 0
    outer loop
      vertex 43.5 -12.95 80.2194
      vertex 43.5 -10.2 3
      vertex 43.5 -10.2 80.2194
    endloop
  endfacet
  facet normal 1 0 0
    outer loop
      vertex 43.5 -10.2 3
      vertex 43.5 -12.95 80.2194
      vertex 43.5 -12.95 3
    endloop
  endfacet
  facet normal 0 1 -0
    outer loop
      vertex 69.5 -12.95 3
      vertex 43.5 -12.95 80.2194
      vertex 69.5 -12.95 80.2194
    endloop
  endfacet
  facet normal 0 1 0
    outer loop
      vertex 43.5 -12.95 80.2194
      vertex 69.5 -12.95 3
      vertex 43.5 -12.95 3
    endloop
  endfacet
endsolid OpenSCAD_Model
